<svg width="120" height="20" viewBox="0 0 120 20" fill="none" xmlns="http://www.w3.org/2000/svg">
<path d="M8.74224 11.527L7.18535 13.1737V16.1378H4.49072V4.43119H7.18535V9.88029L12.365 4.40125H15.359L10.5087 9.64077L15.6285 16.1378H12.4848L8.74224 11.527Z" fill="#ECEDFE"/>
<path d="M16.8862 4.43115H19.5809V16.1377H16.8862V4.43115Z" fill="#ECEDFE"/>
<path d="M33.1136 4.43115V16.1377H30.8981L25.0597 9.01199V16.1078H22.395V4.43115H24.6405L30.449 11.527V4.43115H33.1136Z" fill="#ECEDFE"/>
<path d="M44.9401 13.9521V16.1377H35.8682V4.43115H44.7005V6.58684H38.5628V9.13175H43.982V11.2276H38.5628V13.9222H44.9401V13.9521Z" fill="#ECEDFE"/>
<path d="M49.5209 6.61681H45.7783V4.40125H55.958V6.61681H52.2155V16.1078H49.5209V6.61681Z" fill="#ECEDFE"/>
<path d="M57.4253 4.43115H60.1199V16.1377H57.4253V4.43115Z" fill="#ECEDFE"/>
<path d="M61.8267 10.419C61.8267 6.88609 64.5213 4.37112 68.174 4.37112C70.2099 4.37112 71.8866 5.11963 72.9944 6.43699L71.2578 8.05376C70.4794 7.15555 69.4914 6.67651 68.3237 6.67651C66.1381 6.67651 64.5812 8.20346 64.5812 10.419C64.5812 12.6346 66.1381 14.1615 68.3237 14.1615C69.4914 14.1615 70.4794 13.6825 71.2578 12.7843L72.9944 14.4011C71.8866 15.7484 70.2099 16.4969 68.174 16.4969C64.5512 16.4669 61.8267 13.952 61.8267 10.419Z" fill="#ECEDFE"/>
<path d="M74.8804 4.5809H79.5211C83.2337 4.5809 85.7487 7.00605 85.7487 10.4192C85.7487 13.8324 83.2337 16.2575 79.5211 16.2575H74.8804V4.5809ZM79.4313 15.509C82.7547 15.509 84.8505 13.4132 84.8505 10.4192C84.8505 7.45515 82.7247 5.3294 79.4313 5.3294H75.7187V15.4791H79.4313V15.509Z" fill="#ECEDFE"/>
<path d="M95.2097 12.964H88.4133L86.9163 16.2574H86.0181L91.4073 4.55078H92.2456L97.6349 16.2574H96.7067L95.2097 12.964ZM94.8804 12.2454L91.7965 5.50886L88.7426 12.2454H94.8804Z" fill="#ECEDFE"/>
<path d="M100.45 5.32922H96.228V4.55078H105.51V5.32922H101.288V16.2574H100.45V5.32922Z" fill="#ECEDFE"/>
<path d="M113.294 12.964H106.497L105 16.2574H104.072L109.462 4.55078H110.3L115.689 16.2574H114.761L113.294 12.964ZM112.965 12.2454L109.881 5.50886L106.827 12.2454H112.965Z" fill="#ECEDFE"/>
</svg>
