<svg width="204" height="34" viewBox="0 0 204 34" fill="none" xmlns="http://www.w3.org/2000/svg">
<path d="M13.8505 19.5962L11.1731 22.3956V27.4345H6.53906V7.53332H11.1731V16.7968L20.0807 7.48242H25.2296L16.8884 16.3896L25.693 27.4345H20.2867L13.8505 19.5962Z" fill="#F36C24"/>
<path d="M27.8555 7.5332H32.4895V27.4344H27.8555V7.5332Z" fill="#F36C24"/>
<path d="M55.7627 7.5332V27.4344H51.9525L41.9121 15.3206V27.3835H37.3296V7.5332H41.1913L51.1802 19.5961V7.5332H55.7627Z" fill="#F36C24"/>
<path d="M76.1007 23.7188V27.4344H60.4995V7.5332H75.6888V11.1979H65.1335V15.5242H74.4531V19.0871H65.1335V23.6679H76.1007V23.7188Z" fill="#F36C24"/>
<path d="M83.9786 11.2489H77.5425V7.48242H95.0488V11.2489H88.6126V27.3836H83.9786V11.2489Z" fill="#F36C24"/>
<path d="M97.5718 7.5332H102.206V27.4344H97.5718V7.5332Z" fill="#F36C24"/>
<path d="M105.141 17.7131C105.141 11.7071 109.775 7.43164 116.056 7.43164C119.558 7.43164 122.441 8.7041 124.346 10.9436L121.36 13.6921C120.021 12.1652 118.322 11.3508 116.314 11.3508C112.555 11.3508 109.878 13.9466 109.878 17.7131C109.878 21.4795 112.555 24.0753 116.314 24.0753C118.322 24.0753 120.021 23.261 121.36 21.734L124.346 24.4825C122.441 26.773 119.558 28.0454 116.056 28.0454C109.826 27.9945 105.141 23.7191 105.141 17.7131Z" fill="#F36C24"/>
<path d="M127.59 7.78711H135.571C141.956 7.78711 146.281 11.9099 146.281 17.7123C146.281 23.5147 141.956 27.6374 135.571 27.6374H127.59V7.78711ZM135.417 26.365C141.132 26.365 144.736 22.8021 144.736 17.7123C144.736 12.6733 141.08 9.05956 135.417 9.05956H129.032V26.3141H135.417V26.365Z" fill="#F36C24"/>
<path d="M162.551 22.0387H150.863L148.289 27.6375H146.744L156.012 7.73633H157.454L166.722 27.6375H165.126L162.551 22.0387ZM161.985 20.8172L156.682 9.36507L151.43 20.8172H161.985Z" fill="#F36C24"/>
<path d="M171.562 9.05968H164.302V7.73633H180.263V9.05968H173.003V27.6375H171.562V9.05968Z" fill="#F36C24"/>
<path d="M193.651 22.0387H181.963L179.388 27.6375H177.792L187.06 7.73633H188.502L197.77 27.6375H196.174L193.651 22.0387ZM193.084 20.8172L187.781 9.36507L182.529 20.8172H193.084Z" fill="#F36C24"/>
</svg>
